<?xml version="1.0" encoding="utf-8"?>
<!-- Generator: Adobe Illustrator 26.0.3, SVG Export Plug-In . SVG Version: 6.00 Build 0)  -->
<svg version="1.1" id="Layer_1" xmlns="http://www.w3.org/2000/svg" xmlns:xlink="http://www.w3.org/1999/xlink" x="0px" y="0px"
	 viewBox="0 0 53.2 43.3" style="enable-background:new 0 0 53.2 43.3;" xml:space="preserve">
<style type="text/css">
	.st0{fill:#EB2629;}
</style>
<g id="Layer_1_00000173866064088161305530000010126617490342134179_">
</g>
<g id="Layer_2_00000157297662803635788590000016630829342369223331_">
	<g id="Layer_1-2">
		<g>
			<path class="st0" d="M48.5,1c0.8,0.3,1.6,0.5,1.5,1.5c-0.1,1-0.8,1.5-1.8,1.5c-4.3,0.1-6.7,3-8.5,6.2c-1.8,3-2.1,6.8-1.9,10.3
				c0.2,3.6,1,7.3,3.2,10.4c2.8,4,6,7.2,10.9,8.1c0.6,0.1,1.2,0.2,1.3,0.9c0.1,0.7-0.4,1-1,1.3c-3.4,1.7-7,2.3-10.9,2
				c-4.7-0.4-9.2-1.8-13.3-4.2c-2.5-1.4-4.7-3.3-6.2-5.8c-0.5-0.9-1.2-1.9-0.8-3.1c0.8-2.1,1.6-4.2,2.9-6.1c0.7-1.1,1-2,0.2-3.3
				c-1.5-2.5-2.9-5.2-3.9-8c-0.2-0.6-0.1-1.1,0.2-1.7c1-1.6,2.2-2.9,3.5-4.1C29.1,2.3,35.2,0.2,41,0C44.2,0,46.4,0.4,48.5,1z"/>
			<path class="st0" d="M11.6,21.3c1.5-3.3,3.6-6.3,5-9.6c0.3-0.6,0.7-0.4,1.1,0c0.2,0.2,0.3,0.5,0.4,0.7c1.3,2.7,2.6,5.4,3.8,8.2
				c0.6,1.2,0.4,2-0.1,3.1c-1.2,2.6-2.4,5.1-3.6,7.7c-0.2,0.6-0.5,1-1.2,1c-0.6,0-0.9-0.4-1.2-1c-0.9-2-1.9-3.9-2.8-5.9
				c-0.6-1.2-1.3-2.2-1.5-3.6C11.6,21.8,11.6,21.6,11.6,21.3z"/>
			<path class="st0" d="M4.9,20.3l-0.1,0.2c1.2,0,2.4,0,3.6,0c0.8,0,1.6,0.1,1.5,1.1c-0.1,0.9-0.8,1-1.5,1c-1.7-0.1-3.4-0.1-5.1-0.2
				c-0.8,0-1.5,0.1-2.3-0.1c-0.7-0.2-1.1-0.5-1-1.2c0.2-0.6,0.7-0.8,1.3-0.8C2.5,20.3,3.7,20.3,4.9,20.3L4.9,20.3z"/>
			<path class="st0" d="M13,11.2c-0.1,0-0.4-0.1-0.7-0.4C10.8,8.7,9.4,6.7,8,4.6C7.7,4.1,7.7,3.5,8.2,3.1s1.1-0.3,1.5,0.2
				s0.7,1,1,1.5C11.8,6.4,13,7.9,14,9.5C14.6,10.3,14.2,11.1,13,11.2L13,11.2z"/>
			<path class="st0" d="M11.9,31.5c0.4,0,0.7,0.1,0.9,0.5c0.3,0.5,0.1,0.9-0.2,1.3c-1.3,1.6-2.7,3.2-4.1,4.8c-0.5,0.6-1.1,1-1.8,0.4
				c-0.6-0.6-0.3-1.2,0.2-1.8c1.3-1.5,2.7-3.1,4-4.6C11.1,31.8,11.5,31.5,11.9,31.5L11.9,31.5z"/>
		</g>
	</g>
</g>
</svg>
