<?xml version="1.0" encoding="UTF-8"?>
<svg xmlns="http://www.w3.org/2000/svg" viewBox="0 0 48.19 43.04">
  <g id="Layer_1" data-name="Layer 1"/>
  <g id="Layer_2" data-name="Layer 2">
    <g id="Layer_1-2" data-name="Layer 1">
      <path d="M45.26,43.04c-.68-.11-1.24-.26-1.76-.59-3.81-2.45-7.59-4.96-11.47-7.29-1.3-.78-2.56-1.61-3.83-2.41-.56-.35-.84-.33-.97,.37-.26,1.37-.59,2.72-.83,4.09-.14,.8-.39,1.56-.77,2.25-.47,.87-1.25,1.37-2.26,1.29-.97-.08-1.54-.68-1.91-1.58-.74-1.81-1.14-3.71-1.67-5.58-.15-.54-.2-.64-.75-.33-2.56,1.46-5.15,2.85-7.73,4.26-2.03,1.1-4.07,2.18-6.09,3.3-2,1.1-3.6,.75-4.76-1.03-.75-1.14-.48-2.21,.13-3.26,1.14-1.96,2.36-3.88,3.5-5.85,4-6.89,8.03-13.75,12.19-20.54,1.77-2.88,3.36-5.87,5.23-8.7,1.56-2.36,3.8-1.46,4.77,.26,2.7,4.74,5.29,9.55,7.93,14.33,2.45,4.43,4.85,8.88,7.4,13.25,1.86,3.19,3.93,6.26,5.9,9.39,.6,.95,.97,1.96,.31,3.03-.6,.98-1.58,1.28-2.58,1.35ZM23.03,9.02c-.94,1.52-1.88,2.94-2.64,4.48-.39,.78-.47,1.45-.18,2.27,.88,2.47,1.74,4.96,2.34,7.53,.2,.86,.47,1.73,1.02,2.6,.2-.74,.27-1.41,.55-1.96,1.27-2.46,1.87-5.17,2.92-7.71,.19-.46,.25-.9-.09-1.35-1.42-1.82-2.28-4.01-3.91-5.86Z" fill="#eb2629"/>
    </g>
  </g>
</svg>