<svg xmlns="http://www.w3.org/2000/svg" viewBox="0 0 658.31 443.06"><defs><style>.cls-1{fill:none;stroke:#45b1c8;stroke-miterlimit:10;}.cls-2{fill:#45b1c8;}.cls-3{fill:#ec2127;}</style></defs><g id="Layer_2" data-name="Layer 2"><g id="Layer_1-2" data-name="Layer 1"><path class="cls-1" d="M302.48,113.37c-.05-2.9,1.14-5.13,3.18-7.4,6.45-7.15,15-11.32,22.61-16.8,2.5-1.8,4.85-3.82,7.76-5,3.39-1.34,6-.55,7.87,2.62,4.65,8,10.34,15.3,15.62,22.87,1.35,1.93,2.52,4,3.68,6a5,5,0,0,1-.06,5.19c-3.58,6.39-7.35,12.67-10.73,19.16-5.69,10.91-12.12,21.42-17.5,32.5-2.5,5.12-4.7,6.44-9,5.78a4.86,4.86,0,0,1-4.27-3.31c-2-6.1-3.91-12.23-5.9-18.33-1.74-5.34-3.83-10.59-5.26-16-1.88-7.19-4.52-14.15-6.25-21.37C303.77,117.31,302,115.69,302.48,113.37Zm30.17,11.5a3.12,3.12,0,0,0,1.36-.28,24.58,24.58,0,0,0,8.56-7.81,4.62,4.62,0,0,0-.41-5.6c-1.42-1.87-2.86-3.75-4.44-5.49a5.39,5.39,0,0,0-6.64-1.53,18.92,18.92,0,0,0-7.16,5.29c-2.2,2.77-2.3,5.39-.12,8.19,1.61,2.07,3.4,4,5.17,6A4.33,4.33,0,0,0,332.65,124.87Z"/><path class="cls-2" d="M46.93,240.91a6.31,6.31,0,0,1,6.31,6.31v64.45a6.32,6.32,0,0,0,2.16,4.75l4.2,3.68a6.31,6.31,0,0,0,9.78-1.9l37.47-73.83a6.31,6.31,0,0,1,5.63-3.46h42A6.31,6.31,0,0,1,160,250.2l-55.11,103a6.31,6.31,0,0,0,1.42,7.73l46.5,40.65a6.31,6.31,0,0,1-4.15,11.06H101.3a6.31,6.31,0,0,1-4.13-1.54l-33.49-29a6.18,6.18,0,0,0-4.09-1.55,6.31,6.31,0,0,0-6.35,6.32v18.55a6.31,6.31,0,0,1-6.31,6.31H13.44a6.31,6.31,0,0,1-6.31-6.31V247.22a6.3,6.3,0,0,1,6.31-6.31H46.93m0-2.38H13.44a8.7,8.7,0,0,0-8.69,8.69V405.47a8.69,8.69,0,0,0,8.69,8.68H46.93a8.69,8.69,0,0,0,8.69-8.68V386.92a3.81,3.81,0,0,1,1.2-2.85,4.11,4.11,0,0,1,2.77-1.1,3.88,3.88,0,0,1,2.54,1l33.48,29A8.73,8.73,0,0,0,101.3,415h47.4a8.69,8.69,0,0,0,5.71-15.23l-46.5-40.65a3.9,3.9,0,0,1-.88-4.81l55.1-103a8.69,8.69,0,0,0-7.66-12.78h-42a8.65,8.65,0,0,0-7.75,4.75L67.27,317.13a3.93,3.93,0,0,1-3.52,2.15,3.89,3.89,0,0,1-2.58-1L57,314.63a3.92,3.92,0,0,1-1.34-3V247.22a8.7,8.7,0,0,0-8.69-8.69Z"/><path class="cls-2" d="M235.6,211.32a6.7,6.7,0,0,1,1.71.23l40,11.21a6.32,6.32,0,0,1,4.61,6L284,394.61a6.32,6.32,0,0,1-6.3,6.4,6.48,6.48,0,0,1-1.72-.24l-33.25-9.33a6.29,6.29,0,0,1-4.6-5.86l-.82-24.18a6.31,6.31,0,0,0-4.6-5.86L194.43,344.8a6.57,6.57,0,0,0-1.7-.23,6.32,6.32,0,0,0-5.06,2.54l-15.23,20.42a6.32,6.32,0,0,1-5.06,2.54,6.23,6.23,0,0,1-1.7-.24l-32.2-9a6.31,6.31,0,0,1-3.39-9.8L230.51,213.9a6.32,6.32,0,0,1,5.09-2.58M233,309.82a2.5,2.5,0,0,0,2.5-2.58l-.55-16.07a2.49,2.49,0,0,0-2.52-2.42,2.46,2.46,0,0,0-2,1l-9.06,12.16a3.35,3.35,0,0,0,1.79,5.24l9.14,2.57a2.71,2.71,0,0,0,.68.09m2.62-100.88a8.71,8.71,0,0,0-7,3.56L128.18,349.6a8.67,8.67,0,0,0,4.66,13.49l32.2,9a8.42,8.42,0,0,0,2.34.32,8.74,8.74,0,0,0,7-3.49l15.22-20.42a4,4,0,0,1,3.16-1.58,3.76,3.76,0,0,1,1.06.14l38.27,10.74a3.9,3.9,0,0,1,2.87,3.65l.82,24.18a8.67,8.67,0,0,0,6.34,8.07l33.25,9.33a9.07,9.07,0,0,0,2.36.32,8.74,8.74,0,0,0,6.18-2.59,8.61,8.61,0,0,0,2.49-6.21l-2.11-165.85a8.72,8.72,0,0,0-6.34-8.25l-40-11.21a8.5,8.5,0,0,0-2.35-.33ZM233,307.45h0l-9.15-2.56a1,1,0,0,1-.53-1.54l9.07-12.16h.11c.11,0,.11.06.11.08l.54,16.07-.12.13Z"/><path class="cls-2" d="M353.19,236.39c10,0,27.45,4.07,42,13,19.73,12.1,30.16,29.84,30.16,51.3,0,18.94-6.17,35.63-17.14,48.8a6.25,6.25,0,0,0-.43,7.41l21.37,33a6.3,6.3,0,0,1-2.18,8.92l-30.85,17.51a6.25,6.25,0,0,1-3.11.83,6.32,6.32,0,0,1-5.35-2.95l-21.17-33.63a6.27,6.27,0,0,0-5.31-2.95,6.48,6.48,0,0,0-1.38.15q-2.47.57-5,1a6.29,6.29,0,0,0-5.16,6.19v16.8a6.32,6.32,0,0,1-6.31,6.31H309.58a6.32,6.32,0,0,1-6.31-6.31V242.7a6.32,6.32,0,0,1,6.31-6.31h43.61m2.71,92.85a6,6,0,0,0,2.48-.54,27.58,27.58,0,0,0,10-7.32c6.26-7.5,6.43-17.14,5.46-23.9-.52-3.69-2.38-9-12.44-12.91q-1.8-.69-3.66-1.23a6.41,6.41,0,0,0-1.77-.25,6.33,6.33,0,0,0-6.31,6.33v33.45a6.37,6.37,0,0,0,6.27,6.37M353.19,234H309.58a8.68,8.68,0,0,0-8.68,8.68V401.82a8.69,8.69,0,0,0,8.68,8.69h33.74a8.69,8.69,0,0,0,8.68-8.69V385a3.92,3.92,0,0,1,3.22-3.85c1.73-.32,3.45-.67,5.13-1.06a4.11,4.11,0,0,1,.85-.1,4,4,0,0,1,3.3,1.84l21.17,33.63a8.69,8.69,0,0,0,11.64,2.93l30.85-17.51a8.7,8.7,0,0,0,3-12.28l-21.38-33a3.88,3.88,0,0,1,.26-4.6c11.58-13.89,17.69-31.29,17.69-50.32,0-22.33-10.82-40.77-31.28-53.33-15-9.18-32.92-13.36-43.27-13.36Zm2.71,92.84a4,4,0,0,1-3.9-4V289.42a4,4,0,0,1,3.94-3.95,3.82,3.82,0,0,1,1.11.16c1.21.35,2.38.74,3.46,1.15,8.8,3.4,10.47,7.68,10.95,11,.9,6.29.77,15.22-4.93,22a25.12,25.12,0,0,1-9.12,6.68,3.64,3.64,0,0,1-1.51.33Z"/><path class="cls-2" d="M423.69,205c.24,0,.47,0,.71,0l111.85,12.5a6.3,6.3,0,0,1,5.57,7l-3.34,29.91a6.31,6.31,0,0,1-6.26,5.61c-.24,0-.47,0-.71,0l-27-3a5.74,5.74,0,0,0-.71,0,6.31,6.31,0,0,0-6.27,5.61L484.65,378.19a6.31,6.31,0,0,1-6.27,5.61c-.23,0-.47,0-.7,0l-32.84-3.67a6.31,6.31,0,0,1-5.57-7l12.92-115.68a6.32,6.32,0,0,0-5.57-7l-27-3a6.31,6.31,0,0,1-5.57-7l3.34-29.91a6.31,6.31,0,0,1,6.26-5.61m0-2.37h0a8.67,8.67,0,0,0-8.62,7.72l-3.34,29.91a8.67,8.67,0,0,0,7.67,9.59l27,3a4,4,0,0,1,3.47,4.35L436.9,372.86a8.69,8.69,0,0,0,7.67,9.6l32.84,3.67c.33,0,.65.05,1,.05a8.67,8.67,0,0,0,8.63-7.72l12.92-115.69a4,4,0,0,1,3.91-3.5l.44,0,27,3a7.88,7.88,0,0,0,1,.05,8.67,8.67,0,0,0,8.62-7.72l3.34-29.9a8.69,8.69,0,0,0-7.66-9.6l-111.85-12.5c-.33,0-.65,0-1,0Z"/><path class="cls-2" d="M584.35,258.86A67.22,67.22,0,0,1,618.44,268c14.07,8.24,24.89,22,31.28,39.87a107.69,107.69,0,0,1,6.2,33.63c.09,3.71.62,50.07-27.34,76.51-15.93,15.08-33.82,22.68-52.13,22.69-14.7,0-29.67-4.9-44.11-14.77-15.56-10.63-25.48-33.31-27.21-62.23-1.55-25.87,3.79-52,14-68.17a78.27,78.27,0,0,1,45-33.8,74.23,74.23,0,0,1,20.26-2.86m-4.78,131a13.5,13.5,0,0,0,7.33-2.14c7-4.41,11.78-15.23,13.47-30.45,1.45-13,2.47-43.61-19.21-46.7l-.23,0c-.19,0-.7-.06-1.43-.06a19.09,19.09,0,0,0-8.12,1.82c-6.64,3.2-11.18,10.45-13.48,21.58-3.81,18.35-.84,31.31,2.33,38.94,4,9.67,9.95,14.68,14.18,16.15a15.72,15.72,0,0,0,5.16.9m4.79-133.36h0a76.71,76.71,0,0,0-20.9,2.95,80.69,80.69,0,0,0-46.38,34.83c-10.41,16.57-15.89,43.23-14.32,69.57,1.78,29.66,12.07,53,28.25,64.05,14.74,10.07,30,15.18,45.45,15.18,19,0,37.64-8.07,53.77-23.33,28.45-26.92,28.2-73.12,28.07-78.29A110.48,110.48,0,0,0,652,307.06c-6.59-18.38-17.76-32.6-32.32-41.12a69.88,69.88,0,0,0-35.28-9.46Zm-4.79,131a13.2,13.2,0,0,1-4.38-.78c-3.57-1.24-9.06-5.86-12.77-14.81-3-7.32-5.88-19.78-2.2-37.55,2.15-10.36,6.25-17.06,12.19-19.92a16.82,16.82,0,0,1,7.09-1.59,10,10,0,0,1,1.18.06l.16,0c19.61,2.8,18.54,31.76,17.17,44.08-1.61,14.5-6,24.69-12.38,28.71a11.21,11.21,0,0,1-6.06,1.78Z"/><path class="cls-3" d="M6.31,236.16H39.8a6.3,6.3,0,0,1,6.31,6.31v64.45a6.32,6.32,0,0,0,2.16,4.75l4.21,3.68a6.31,6.31,0,0,0,9.78-1.9l37.46-73.83a6.32,6.32,0,0,1,5.63-3.46h42a6.31,6.31,0,0,1,5.56,9.29l-55.1,103a6.31,6.31,0,0,0,1.41,7.73l46.51,40.65a6.31,6.31,0,0,1-4.16,11.06H94.17A6.33,6.33,0,0,1,90,406.36l-33.48-29a6.31,6.31,0,0,0-10.44,4.77v18.55A6.32,6.32,0,0,1,39.81,407H6.31A6.32,6.32,0,0,1,0,400.72V242.47A6.31,6.31,0,0,1,6.31,236.16Z"/><path class="cls-3" d="M158.55,365.08l-32.2-9a6.3,6.3,0,0,1-3.38-9.8l100.42-137.1a6.31,6.31,0,0,1,6.79-2.35l40,11.21a6.32,6.32,0,0,1,4.61,6l2.11,165.85a6.31,6.31,0,0,1-8,6.16l-33.26-9.33a6.29,6.29,0,0,1-4.6-5.86l-.82-24.18a6.29,6.29,0,0,0-4.6-5.86l-38.27-10.74a6.33,6.33,0,0,0-6.77,2.31l-15.22,20.42A6.31,6.31,0,0,1,158.55,365.08ZM216,302.41l9.15,2.57a2.49,2.49,0,0,0,3.17-2.49l-.54-16.07a2.5,2.5,0,0,0-4.5-1.41l-9.07,12.15A3.36,3.36,0,0,0,216,302.41Z"/><path class="cls-3" d="M418.24,296c0,18.94-6.16,35.63-17.14,48.8a6.24,6.24,0,0,0-.42,7.41l21.37,33a6.32,6.32,0,0,1-2.18,8.92L389,411.59a6.3,6.3,0,0,1-8.45-2.12l-21.18-33.63a6.26,6.26,0,0,0-6.69-2.8q-2.47.57-5,1a6.3,6.3,0,0,0-5.17,6.19v16.8a6.31,6.31,0,0,1-6.31,6.31H302.46a6.31,6.31,0,0,1-6.31-6.31V238a6.31,6.31,0,0,1,6.31-6.31h43.6c10,0,27.46,4.07,42,13C407.82,256.76,418.24,274.5,418.24,296Zm-51.55-3.23c-.53-3.69-2.39-9-12.45-12.91-1.19-.46-2.42-.87-3.65-1.23a6.34,6.34,0,0,0-8.09,6.08v33.45a6.29,6.29,0,0,0,8.76,5.83,27.46,27.46,0,0,0,10-7.32C367.49,309.13,367.65,299.49,366.69,292.73Z"/><path class="cls-3" d="M534.7,219.72l-3.34,29.91a6.32,6.32,0,0,1-7,5.57l-27-3a6.3,6.3,0,0,0-7,5.57L477.52,373.44a6.3,6.3,0,0,1-7,5.57l-32.84-3.66a6.32,6.32,0,0,1-5.57-7l12.92-115.68a6.31,6.31,0,0,0-5.57-7l-27-3a6.32,6.32,0,0,1-5.57-7l3.34-29.91a6.32,6.32,0,0,1,7-5.57l111.85,12.5A6.31,6.31,0,0,1,534.7,219.72Z"/><path class="cls-3" d="M611.31,263.24c14.08,8.24,24.89,22,31.28,39.87a107.4,107.4,0,0,1,6.2,33.63c.09,3.71.63,50.07-27.33,76.51-15.94,15.08-33.83,22.68-52.14,22.68-14.7,0-29.66-4.89-44.11-14.76-15.56-10.63-25.48-33.31-27.21-62.23-1.55-25.87,3.8-52,14-68.17A78.29,78.29,0,0,1,557,257C575.92,251.6,595.22,253.83,611.31,263.24ZM574,305.8l-.24,0c-.19,0-.69-.06-1.43-.06a19.05,19.05,0,0,0-8.11,1.82c-6.64,3.2-11.18,10.45-13.49,21.58-3.81,18.35-.83,31.31,2.33,38.94,4,9.67,10,14.68,14.18,16.15A14.15,14.15,0,0,0,579.77,383c7-4.41,11.78-15.23,13.47-30.45C594.69,339.49,595.71,308.89,574,305.8Z"/><path class="cls-2" d="M138.44,39.5c3.52-1.6,9.36,2.11,9,5.54-.2,1.71-1.81,2.41-3.2,3.16-2.4,1.3-4.82,2.56-7.25,3.81-1.59.82-1.91,1.87-1.38,3.3,2.8,7.62,4,15.79,7.85,23.06,2,3.79,1.61,4.35-2.33,6.36l-.81.4c-6.48,3.17-7,3-9.46-3.51-2.66-6.92-5.46-13.79-7-21.11-.52-2.53-1.64-3-4.17-1.58a93.48,93.48,0,0,1-8.53,4.65c-3.69,1.6-4.7-.68-6-2.78s-.91-4.17,1.88-5.62C112.61,52.27,133.5,41.74,138.44,39.5Z"/><path class="cls-2" d="M189.64,57.42a16.19,16.19,0,0,1,.56,2.87c.49,4.14-1.47,6.24-5.76,6.21-2.09,0-2.85-1.34-3-3.07-.33-2.83-1.41-5.45-2.09-8.17-.44-1.75-1-2.58-3.17-1.41a36.65,36.65,0,0,1-6.65,2.58c-2.41.74-3.24,1.8-2.11,4a63.21,63.21,0,0,1,3,7.12c1.08,3.07.18,4.24-4,5.79-3.09,1.16-4,.9-5.09-2.31-3.4-10.23-7.84-20-11.94-30-.61-1.49-.92-3,.51-4.16,1.9-1.51,3.87-3.3,6.56-3.33,1.46,0,1.76,1.24,2.14,2.3,1.32,3.68,2.7,7.35,4,11,.76,2.1,1.89,2.9,4.44,1.57a57.15,57.15,0,0,1,7.87-3.15c1.85-.63,2.08-1.44,1.53-3.08-1.41-4.2-3.79-8-5.22-12.15-1-2.8-.61-3.31,3.41-4.78,3.69-1.35,4.88-1.05,5.91,1.5.46,1.14.77,2.33,1.15,3.49S187.08,49.5,189.64,57.42Z"/><path class="cls-2" d="M206.17,49.64c4.7-1.33,9.14-2.55,13.62-3.61,4.78-1.14,7.44,1.12,7.15,5.76a2.61,2.61,0,0,1-2.08,2.65c-8.14,1.94-15.8,5.44-24.13,7-2.74.52-4.1-.18-4.87-2.66a276.85,276.85,0,0,1-8.31-32.62c-.46-2.54.37-4,3-5.15,6.91-3.06,14.25-4.82,21.53-6.69,2.61-.67,4,.33,4.51,2.46a14.26,14.26,0,0,1,.3,2c.6,5.17.6,5.15-5.07,6.47-2.86.67-5.72,1.43-8.61,2-2.62.48-3.07,1.69-2.25,3.67a13,13,0,0,1,.68,2.28c.33,1.53,1.35,1.8,2.85,1.36,2.23-.66,4.49-1.23,6.72-1.87,1.9-.55,3.06-.06,3.44,1.77.24,1.16.58,2.31.81,3.47.43,2.29-.79,3.52-3.08,4-.27.06-.56,0-.85.07C204.75,42.91,204.74,43,206.17,49.64Z"/><path class="cls-2" d="M266.81,25.24a41.91,41.91,0,0,0-3,9.24,47.07,47.07,0,0,1-4.06,10.94c-2.22,4.18-4.88,4.41-7.41.44-6.33-9.93-12.09-20.21-17.8-30.55-1-1.88.66-5,3.28-6.39s3.78.29,4.86,1.88c4.24,6.25,8.32,12.57,12.33,19,1.8-.55,1.68-2.08,2-3.14a119.4,119.4,0,0,1,6.21-14.54c2.88-5.68,4.85-6,8.82-1.23,3.38,4,6.49,8.26,9.6,12.42,1.79-.49,1.11-1.67,1.08-2.51a47.78,47.78,0,0,1,.78-11.13c.73-3.52,7.25-6.28,10.72-4.62A2.37,2.37,0,0,1,295.69,8c-2.57,10.07-2.93,20.43-5.11,30.52a7.86,7.86,0,0,1-.27.82c-.74,2.36-1.46,5-4.26,5.54-2.5.45-3.8-1.87-5.14-3.53-4-4.94-8-9.9-12.21-14.79C268.25,26,268.07,25.17,266.81,25.24Z"/><path class="cls-2" d="M342.51,21.48c-.34,13.27-9.88,21.71-25.79,21.41-8.34-.16-15.65-6.68-17.67-15.46a23.45,23.45,0,0,1,4.2-19.81,16.15,16.15,0,0,1,5.16-4.53c14.74-8.37,34,1.27,34.14,16.66C342.56,20.33,342.52,20.91,342.51,21.48ZM320.38,33.82c8.8-.92,14.83-5.84,14.42-13.69-.36-6.69-6.91-11.55-15.31-11.07-7.88.45-12.32,5.87-11.44,13.59C309.11,31.84,313.06,34.59,320.38,33.82Z"/><path class="cls-2" d="M367.69,26.57c2.69,3.5,5.12,6.58,7.3,9.81s1.94,4.7-.29,6.31c-3.13,2.24-5.73,2.18-8.2-.35A49.22,49.22,0,0,1,361,35.06a9.87,9.87,0,0,0-3.72-3.89c-.34,2.82-.63,5.38-.95,7.94-.24,1.92,0,4.16-3,4.28-4.09.16-6.86-1.41-7.35-4.43a40.76,40.76,0,0,1-.06-10.64c.77-7.5,1.54-15,1.68-22.54,0-2.06.52-3.73,3.07-4.11C358.55.49,366.37.62,373.31,5c4.89,3.09,6.55,7.21,5.67,12.3-.84,4.84-4.32,7.22-9,8.61Zm-6.12-9.28c3.79.55,5.67-.45,5.69-2.71,0-2-2.31-3.47-5.45-3.69-2.93-.21-4.13.87-4.38,3.55C357.1,17.91,360,17.06,361.57,17.29Z"/><path class="cls-2" d="M384.54,7.45c.37-2.92,3.17-4.22,7.54-3.39,3,.58,2.38,2.58,2.1,4.4-1.31,8.64-2.37,17.31-3.07,26-.21,2.53.59,3.62,3.21,3.92,3.25.38,6.46,1,9.7,1.56,2.11.35,3.7,1.12,3.59,3.52-.13,2.74-1.82,5.08-4,5.24a16.74,16.74,0,0,1-4.35-.32c-4.43-.88-8.87-1.73-13.29-2.66-4.71-1-5.38-1.84-4.92-6.35C381.55,34.08,383.88,12.77,384.54,7.45Z"/><path class="cls-2" d="M414,23.16c.87-3.16,1.7-6.49,2.41-9.76.33-1.53.85-2.67,2.86-2.59,8,.33,16.14,0,23.68,3.57,14.26,6.76,16.07,26.83,4.5,34.32a19.93,19.93,0,0,1-10.72,3.1c-7.11.12-14.17.57-21.21-.46-4.87-.71-5.93-1.74-5.12-6.31C411.66,37.75,412.05,30.17,414,23.16Zm16.53.35a16.36,16.36,0,0,0-1.74-.37c-3.87-.55-4-.38-4,3.37,0,3.35.12,6.72-.08,10.05-.1,1.67.39,2.38,2.17,2.3a39.73,39.73,0,0,0,10.53-1.43c4-1.29,5.12-3.83,3.06-7.48S435.29,24.26,430.49,23.51Z"/><path class="cls-2" d="M511.88,59.12c-5.2,12.25-17.38,16.45-32.28,10.23-7.81-3.25-12.28-12-10.94-20.94A23.22,23.22,0,0,1,479.9,31.55a16.17,16.17,0,0,1,6.53-2.29c17-2.3,31.66,13.9,26.13,28.28C512.35,58.07,512.1,58.59,511.88,59.12ZM486.4,62.29c8.65,2.43,16.17.13,18.67-7.33,2.13-6.35-2.29-13.33-10.39-16-7.61-2.53-13.78.86-15.8,8.37C476.49,56.25,479.2,60.27,486.4,62.29Z"/><path class="cls-2" d="M523.19,74.4a35.27,35.27,0,0,1-2.87,7.69c-1.67,3.07-2.44,3.41-5.67,1.82-9.51-4.67-9.76-3.4-4.29-12.69,4.57-7.76,9.07-15.56,13.68-23.3,1.47-2.48,3.46-2.92,6.33-2.08,7.09,2.09,13.76,5.44,20.6,8.39,3.36,1.46,3.51,2.48,2,5.46-2.25,4.43-4.09,4.93-9.18,2.56-3.09-1.44-6.21-2.81-9.23-4.38-2.33-1.21-3.72-.87-4.51,1.26-.09.26-.27.48-.38.73-3.42,7-4.22,5.43,3.62,9,3.68,1.69,4.1,2.44,2.94,5-1.63,3.58-4.47,4.93-7.44,3.51C527,76.52,525.57,74.81,523.19,74.4Z"/><path class="cls-3" d="M298.48,112.37c-.05-2.9,1.14-5.13,3.18-7.4,6.45-7.15,15-11.32,22.61-16.8,2.5-1.8,4.85-3.82,7.76-5,3.39-1.34,6-.55,7.87,2.62,4.65,8,10.34,15.3,15.62,22.87,1.35,1.93,2.52,4,3.68,6a5,5,0,0,1-.06,5.19c-3.58,6.39-7.35,12.67-10.73,19.16-5.69,10.91-12.12,21.42-17.5,32.5-2.5,5.12-4.7,6.44-9,5.78a4.86,4.86,0,0,1-4.27-3.31c-2-6.1-3.91-12.23-5.9-18.33-1.74-5.34-3.83-10.59-5.26-16-1.88-7.19-4.52-14.15-6.25-21.37C299.77,116.31,298,114.69,298.48,112.37Zm30.17,11.5a3.12,3.12,0,0,0,1.36-.28,24.58,24.58,0,0,0,8.56-7.81,4.62,4.62,0,0,0-.41-5.6c-1.42-1.87-2.86-3.75-4.44-5.49a5.39,5.39,0,0,0-6.64-1.53,18.92,18.92,0,0,0-7.16,5.29c-2.2,2.77-2.3,5.39-.12,8.19,1.61,2.07,3.4,4,5.17,6A4.33,4.33,0,0,0,328.65,123.87Z"/></g></g></svg>