<?xml version="1.0" encoding="utf-8"?>
<!-- Generator: Adobe Illustrator 26.2.1, SVG Export Plug-In . SVG Version: 6.00 Build 0)  -->
<svg version="1.1" id="Layer_1" xmlns="http://www.w3.org/2000/svg" xmlns:xlink="http://www.w3.org/1999/xlink" x="0px" y="0px"
	 viewBox="0 0 53.2 43.3" style="enable-background:new 0 0 53.2 43.3;" xml:space="preserve">
<style type="text/css">
	.st0{fill:#EB2629;}
</style>
<g id="Layer_1_00000173866064088161305530000010126617490342134179_">
</g>
<g id="Layer_2_00000157297662803635788590000016630829342369223331_">
	<g id="Layer_1-2">
		<g>
			<path class="st0" d="M12.2,0C18,0.2,24.1,2.3,29.3,6.9c1.3,1.2,2.5,2.5,3.5,4.1c0.3,0.6,0.4,1.1,0.2,1.7c-1,2.8-2.4,5.5-3.9,8
				c-0.8,1.3-0.5,2.2,0.2,3.3c1.3,1.9,2.1,4,2.9,6.1c0.4,1.2-0.3,2.2-0.8,3.1c-1.5,2.5-3.7,4.4-6.2,5.8c-4.1,2.4-8.6,3.8-13.3,4.2
				C8,43.5,4.4,42.9,1,41.2c-0.6-0.3-1.1-0.6-1-1.3c0.1-0.7,0.7-0.8,1.3-0.9c4.9-0.9,8.1-4.1,10.9-8.1c2.2-3.1,3-6.8,3.2-10.4
				c0.2-3.5-0.1-7.3-1.9-10.3C11.7,7,9.3,4.1,5,4C4,4,3.3,3.5,3.2,2.5C3.1,1.5,3.9,1.3,4.7,1C6.8,0.4,9,0,12.2,0z"/>
			<path class="st0" d="M41.7,21.9c-0.2,1.4-0.9,2.4-1.5,3.6c-0.9,2-1.9,3.9-2.8,5.9c-0.3,0.6-0.6,1-1.2,1c-0.7,0-1-0.4-1.2-1
				c-1.2-2.6-2.4-5.1-3.6-7.7c-0.5-1.1-0.7-1.9-0.1-3.1c1.2-2.8,2.5-5.5,3.8-8.2c0.1-0.2,0.2-0.5,0.4-0.7c0.4-0.4,0.8-0.6,1.1,0
				c1.4,3.3,3.5,6.3,5,9.6C41.6,21.6,41.6,21.8,41.7,21.9z"/>
			<path class="st0" d="M48.3,20.3c1.2,0,2.4,0,3.6,0c0.6,0,1.1,0.2,1.3,0.8c0.1,0.7-0.3,1-1,1.2c-0.8,0.2-1.5,0.1-2.3,0.1
				c-1.7,0.1-3.4,0.1-5.1,0.2c-0.7,0-1.4-0.1-1.5-1c-0.1-1,0.7-1.1,1.5-1.1c1.2,0,2.4,0,3.6,0L48.3,20.3L48.3,20.3z"/>
			<path class="st0" d="M40.2,11.2c-1.2-0.1-1.6-0.9-1-1.7c1-1.6,2.2-3.1,3.3-4.7c0.3-0.5,0.6-1,1-1.5c0.4-0.5,1-0.6,1.5-0.2
				c0.5,0.4,0.5,1,0.2,1.5c-1.4,2.1-2.8,4.1-4.3,6.2C40.6,11.1,40.3,11.2,40.2,11.2L40.2,11.2z"/>
			<path class="st0" d="M41.3,31.5c0.4,0,0.8,0.3,1,0.6c1.3,1.5,2.7,3.1,4,4.6c0.5,0.6,0.8,1.2,0.2,1.8c-0.7,0.6-1.3,0.2-1.8-0.4
				c-1.4-1.6-2.8-3.2-4.1-4.8c-0.3-0.4-0.5-0.8-0.2-1.3C40.6,31.6,40.9,31.5,41.3,31.5L41.3,31.5z"/>
		</g>
	</g>
</g>
</svg>
