<svg id="Layer_1" data-name="Layer 1" xmlns="http://www.w3.org/2000/svg" viewBox="0 0 61.49 94.94"><defs><style>.cls-1{fill:#ec2127;}</style></defs><path class="cls-1" d="M509.87,522.93c-.05-2.9,1.14-5.13,3.18-7.4,6.45-7.15,15-11.32,22.61-16.8,2.5-1.8,4.85-3.82,7.76-5,3.39-1.34,6-.55,7.87,2.62,4.66,8,10.34,15.3,15.62,22.87,1.35,1.93,2.52,4,3.68,6a5,5,0,0,1-.06,5.19c-3.58,6.39-7.35,12.67-10.73,19.16-5.69,10.91-12.12,21.42-17.5,32.49-2.5,5.13-4.7,6.45-9,5.79a4.87,4.87,0,0,1-4.27-3.31c-2-6.1-3.91-12.23-5.9-18.33-1.74-5.34-3.83-10.59-5.25-16-1.89-7.19-4.53-14.15-6.26-21.37C511.16,526.86,509.43,525.25,509.87,522.93ZM540,534.43a3.12,3.12,0,0,0,1.36-.28,24.58,24.58,0,0,0,8.56-7.81,4.62,4.62,0,0,0-.41-5.6c-1.42-1.87-2.86-3.75-4.44-5.49a5.39,5.39,0,0,0-6.64-1.53,18.92,18.92,0,0,0-7.16,5.29c-2.2,2.77-2.3,5.39-.12,8.19,1.61,2.07,3.4,4,5.17,5.95A4.33,4.33,0,0,0,540,534.43Z" transform="translate(-509.8 -493.14)"/></svg>