<?xml version="1.0" encoding="UTF-8"?>
<svg xmlns="http://www.w3.org/2000/svg" viewBox="0 0 26.17 42.3">
  <g id="Layer_1" data-name="Layer 1"/>
  <g id="Layer_2" data-name="Layer 2">
    <g id="Layer_1-2" data-name="Layer 1">
      <path d="M10.16,42.28c-1.98,0-3.96-.05-5.94,.01-2.44,.08-3.51-.76-3.67-3.18-.38-5.68-.84-11.36-.32-17.05,.32-3.48,.4-7.06,1.72-10.33C3.78,7.25,6.22,3.23,11.18,1.37,12.94,.71,14.55-.2,16.52,.04c1.51,.19,2.91,.65,3.95,1.75,2.91,3.05,4.71,6.63,5.2,10.88,.51,4.52,.43,9.04,.31,13.57-.05,1.87,.17,3.74,.19,5.61,.02,2.43,0,4.86-.09,7.28-.05,1.36-1.24,2.35-2.67,2.43-1.62,.08-3.25,.22-4.87,.21-2.8-.02-5.57,.43-8.37,.51Zm-1.41-23.44c.7,.4,1.42,.72,2.25,.66,.58-.04,1.02-.31,1.08-.91,.06-.65-.38-.95-.97-.96-.63-.02-1.13-.25-1.66-.57-1.11-.68-2.23-.18-2.52,1.08-.19,.81-.37,1.63-.54,2.45-.26,1.22,.05,1.8,1.24,2.17,.76,.23,1.55,.36,2.32,.54,.62,.15,1.26,.21,1.47-.56,.2-.74-.33-1.08-.93-1.29-.22-.08-.46-.13-.69-.19q-1.69-.44-1.17-2.18c.02-.07,.07-.13,.12-.21Zm7.66-5.56h.13c-.09-1.23-.15-2.47-.29-3.69-.07-.61-.44-1.05-1.15-.92-.67,.12-.78,.6-.64,1.18,.29,1.19,.08,2.38,.12,3.58,.03,.75,.03,1.33-.99,1.3-.4-.01-.71,.37-.77,.8-.06,.39,.11,.67,.48,.87,1.63,.87,3.06,.11,3.11-1.68,.01-.48,0-.96,0-1.44ZM5.91,35.65c.15,.7,.27,1.4,.45,2.09,.14,.53,.46,1.05,1.07,.94,1.64-.28,3.27-.63,4.88-1.03,.49-.12,.74-.62,.55-1.16-.18-.52-.63-.55-1.09-.47-.82,.14-1.64,.29-2.46,.46-.87,.18-1.57,.22-1.46-1.04,.05-.6-.24-1.12-.98-1.07-.77,.06-.98,.57-.96,1.28Zm15.29-19.14h-.11c0-.72,0-1.43,0-2.15,0-.66-.15-1.25-.93-1.25-.75,0-.88,.62-.9,1.18-.02,.83,.06,1.67,.08,2.5,.01,.77,.18,1.57-1.11,1.57-.71,0-1.02,.75-.55,1.33,.7,.85,1.68,.46,2.57,.27,.7-.15,.97-.63,.96-1.31,0-.71,0-1.43,0-2.14Zm-1.87,7.54c.07-.64,.21-1.35-.7-1.51-.64-.11-.97,.32-1.07,.88-.21,1.09-.38,2.19-.55,3.29-.12,.82,.23,1.3,1.08,1.39,.71,.07,1.44,.11,2.13,.29,.71,.19,1.22,.12,1.35-.66,.14-.8-.42-1.37-1.06-1.29-1.77,.22-1.52-.72-1.22-1.8,.05-.19,.02-.4,.03-.6ZM14.23,5.24c.1-.63,.56-1.36-.29-1.68-.9-.33-1.27,.39-1.61,1.04-.15,.28-.28,.57-.4,.87-.47,1.19-.09,1.81,1.17,1.72,1.15-.08,2.2,0,3.21,.62,.53,.33,1.19,.47,1.52-.29,.31-.7-.19-1.15-.73-1.43-.88-.45-1.8-.86-2.86-.85Zm.9,18.05c-.05-.54-.1-1.33-.19-2.12-.06-.54-.39-.9-.96-.85-.55,.05-.83,.42-.82,.99,.01,.36,.02,.72,.03,1.08,.05,1.19,.49,2.5-1.31,2.9-.46,.1-.49,.68-.36,1.14,.12,.41,.46,.54,.83,.55,1.72,.07,2.8-.99,2.77-2.71,0-.24,0-.48,0-.97Zm-6.17-8.85s.36,.02,.66-.06c.37-.1,.61-.39,.65-.78,.04-.39-.09-.78-.5-.84-1.29-.18-.96-1.04-.84-1.84,.07-.43,.12-.87,.18-1.3,.09-.6,.06-1.17-.7-1.26-.73-.08-.96,.45-1.06,1.04-.17,.94-.27,1.89-.46,2.82-.38,1.83-.09,2.21,2.07,2.21Zm5.2,17.1c0-.32-.03-.64,0-.96,.07-.54-.03-.99-.64-1.09-.61-.1-.94,.22-1.12,.81-.28,.97-1.4,2.14-2.32,2.53-.07,.03-.15,.06-.22,.09-.57,.29-.89,.72-.58,1.35,.29,.6,.83,.72,1.42,.46,.33-.14,.63-.31,1-.38,2.32-.42,2.39-.51,2.46-2.82Zm4.32,1.78c0-.45,.01-.85,0-1.25-.02-.6-.31-1.02-.94-1-.59,.01-.78,.45-.81,.99-.03,.52-.1,1.03-.14,1.55q-.24,2.83,2.54,3.38c.58,.11,1.15,.14,1.35-.59,.18-.69-.26-1.17-.82-1.23-1.3-.13-1.42-.88-1.17-1.84Zm-11.25-2.18c.37-.05,.85-.08,1.31-.2,.38-.1,.58-.41,.57-.82,0-.35-.13-.73-.47-.75-1.4-.04-1.07-.96-.97-1.78,.06-.47,.13-.95,.12-1.42-.01-.53-.13-1.1-.81-1.12-.6-.02-.93,.35-1,.96-.14,1.1-.31,2.2-.45,3.3-.18,1.44,.17,1.83,1.69,1.82Z" fill="#eb2629"/>
    </g>
  </g>
</svg>