<?xml version="1.0" encoding="utf-8"?>
<!-- Generator: Adobe Illustrator 26.0.3, SVG Export Plug-In . SVG Version: 6.00 Build 0)  -->
<svg version="1.1" id="Layer_1" xmlns="http://www.w3.org/2000/svg" xmlns:xlink="http://www.w3.org/1999/xlink" x="0px" y="0px"
	 viewBox="0 0 658.3 443.1" style="enable-background:new 0 0 658.3 443.1;" xml:space="preserve">
<style type="text/css">
	.st0{fill:#45B1C8;}
	.st1{fill:#EC2127;}
	.st2{fill:none;stroke:#45B1C8;stroke-miterlimit:10;}
</style>
<g>
	<path class="st0" d="M46.9,240.9c3.5,0,6.3,2.8,6.3,6.3v64.4c0,1.8,0.8,3.6,2.2,4.8l4.2,3.7c2.6,2.3,6.6,2,8.9-0.6
		c0.3-0.4,0.6-0.8,0.9-1.3l37.5-73.8c1.1-2.1,3.3-3.5,5.6-3.5h42c3.5,0,6.3,2.9,6.3,6.4c0,1-0.3,2-0.7,2.9l-55.1,103
		c-1.4,2.6-0.8,5.8,1.4,7.7l46.5,40.6c2.6,2.3,2.9,6.3,0.6,8.9c-1.2,1.4-2.9,2.2-4.7,2.2h-47.4c-1.5,0-3-0.5-4.1-1.5l-33.5-29
		c-1.1-1-2.6-1.5-4.1-1.5c-3.5,0-6.3,2.8-6.3,6.3c0,0,0,0,0,0.1v18.5c0,3.5-2.8,6.3-6.3,6.3H13.4c-3.5,0-6.3-2.8-6.3-6.3V247.2
		c0-3.5,2.8-6.3,6.3-6.3c0,0,0,0,0,0H46.9 M46.9,238.5H13.4c-4.8,0-8.7,3.9-8.7,8.7v158.2c0,4.8,3.9,8.7,8.7,8.7h33.5
		c4.8,0,8.7-3.9,8.7-8.7v-18.5c0-1.1,0.4-2.1,1.2-2.9c0.8-0.7,1.7-1.1,2.8-1.1c0.9,0,1.8,0.4,2.5,1l33.5,29c1.6,1.3,3.6,2.1,5.7,2
		h47.4c4.8,0,8.7-3.9,8.7-8.7c0-2.5-1.1-4.9-3-6.5l-46.5-40.6c-1.4-1.2-1.8-3.2-0.9-4.8l55.1-103c2.3-4.2,0.7-9.5-3.6-11.8
		c-1.3-0.7-2.7-1-4.1-1h-42c-3.3,0-6.3,1.8-7.8,4.8l-37.5,73.9c-0.7,1.3-2,2.2-3.5,2.1c-1,0-1.9-0.4-2.6-1l-4.2-3.6
		c-0.9-0.8-1.4-1.9-1.3-3v-64.4C55.7,242.4,51.8,238.5,46.9,238.5L46.9,238.5z"/>
	<path class="st0" d="M235.6,211.3c0.6,0,1.2,0.1,1.7,0.2l40,11.2c2.7,0.8,4.6,3.2,4.6,6l2.1,165.8c0,3.5-2.7,6.4-6.2,6.4
		c0,0,0,0-0.1,0c-0.6,0-1.2-0.1-1.7-0.2l-33.2-9.3c-2.6-0.7-4.5-3.1-4.6-5.9l-0.8-24.2c-0.1-2.7-2-5.1-4.6-5.9l-38.3-10.7
		c-0.6-0.2-1.1-0.2-1.7-0.2c-2,0-3.9,0.9-5.1,2.5l-15.2,20.4c-1.2,1.6-3.1,2.5-5.1,2.5c-0.6,0-1.1-0.1-1.7-0.2l-32.2-9
		c-3.4-0.9-5.3-4.4-4.4-7.8c0.2-0.7,0.5-1.4,1-2l100.4-137.1C231.7,212.3,233.6,211.3,235.6,211.3 M233,309.8c1.4,0,2.5-1.1,2.5-2.5
		c0,0,0-0.1,0-0.1l-0.6-16.1c0-1.4-1.2-2.4-2.5-2.4c-0.8,0-1.5,0.4-2,1l-9.1,12.2c-1.1,1.5-0.8,3.6,0.7,4.7c0.3,0.3,0.7,0.4,1.1,0.5
		l9.1,2.6C232.5,309.8,232.8,309.8,233,309.8 M235.6,208.9c-2.8,0-5.4,1.3-7,3.6L128.2,349.6c-2.8,3.9-2,9.3,1.8,12.1
		c0.8,0.6,1.8,1.1,2.8,1.4l32.2,9c0.8,0.2,1.5,0.3,2.3,0.3c2.8,0,5.3-1.3,7-3.5l15.2-20.4c0.8-1,1.9-1.6,3.2-1.6
		c0.4,0,0.7,0,1.1,0.1l38.3,10.7c1.7,0.5,2.8,1.9,2.9,3.6l0.8,24.2c0.1,3.8,2.7,7.1,6.3,8.1l33.2,9.3c0.8,0.2,1.6,0.3,2.4,0.3
		c2.3,0,4.5-0.9,6.2-2.6c1.6-1.6,2.5-3.9,2.5-6.2l-2.1-165.9c-0.1-3.8-2.6-7.2-6.3-8.2l-40-11.2C237.2,209,236.4,208.9,235.6,208.9
		L235.6,208.9z M233,307.5L233,307.5l-9.1-2.6c-0.5-0.2-0.8-0.7-0.7-1.2c0-0.1,0.1-0.2,0.1-0.3l9.1-12.2h0.1c0.1,0,0.1,0.1,0.1,0.1
		l0.5,16.1L233,307.5L233,307.5z"/>
	<path class="st0" d="M353.2,236.4c10,0,27.5,4.1,42,13c19.7,12.1,30.2,29.8,30.2,51.3c0,18.9-6.2,35.6-17.1,48.8
		c-1.8,2.1-1.9,5.1-0.4,7.4l21.4,33c1.9,2.9,1.1,6.8-1.8,8.7c-0.1,0.1-0.2,0.1-0.3,0.2l-30.9,17.5c-0.9,0.5-2,0.8-3.1,0.8
		c-2.2,0-4.2-1.1-5.4-3l-21.2-33.6c-1.1-1.8-3.2-2.9-5.3-3c-0.5,0-0.9,0.1-1.4,0.1c-1.6,0.4-3.3,0.7-5,1c-3,0.5-5.2,3.2-5.2,6.2
		v16.8c0,3.5-2.8,6.3-6.3,6.3h-33.8c-3.5,0-6.3-2.8-6.3-6.3V242.7c0-3.5,2.8-6.3,6.3-6.3H353.2 M355.9,329.2c0.9,0,1.7-0.2,2.5-0.5
		c3.8-1.6,7.3-4.2,10-7.3c6.3-7.5,6.4-17.1,5.5-23.9c-0.5-3.7-2.4-9-12.4-12.9c-1.2-0.5-2.4-0.9-3.7-1.2c-0.6-0.2-1.2-0.2-1.8-0.2
		c-3.5,0-6.3,2.8-6.3,6.3v33.5C349.7,326.3,352.5,329.2,355.9,329.2 M353.2,234h-43.6c-4.8,0-8.7,3.9-8.7,8.7v159.1
		c0,4.8,3.9,8.7,8.7,8.7h33.7c4.8,0,8.7-3.9,8.7-8.7V385c0-1.9,1.4-3.5,3.2-3.9c1.7-0.3,3.5-0.7,5.1-1.1c0.3-0.1,0.6-0.1,0.9-0.1
		c1.3,0,2.6,0.7,3.3,1.8l21.2,33.6c2.5,3.9,7.6,5.2,11.6,2.9l30.9-17.5c4.2-2.4,5.6-7.7,3.3-11.9c-0.1-0.1-0.2-0.3-0.3-0.4l-21.4-33
		c-0.9-1.4-0.8-3.3,0.3-4.6c11.6-13.9,17.7-31.3,17.7-50.3c0-22.3-10.8-40.8-31.3-53.3C381.5,238.2,363.5,234,353.2,234L353.2,234z
		 M355.9,326.8c-2.2-0.1-3.9-1.8-3.9-4v-33.4c0-2.2,1.8-3.9,3.9-4c0.4,0,0.7,0.1,1.1,0.2c1.2,0.4,2.4,0.7,3.5,1.1
		c8.8,3.4,10.5,7.7,11,11c0.9,6.3,0.8,15.2-4.9,22c-2.5,2.9-5.6,5.2-9.1,6.7C356.9,326.7,356.4,326.8,355.9,326.8L355.9,326.8z"/>
	<path class="st0" d="M423.7,205c0.2,0,0.5,0,0.7,0l111.9,12.5c3.5,0.4,6,3.5,5.6,6.9c0,0,0,0,0,0.1l-3.3,29.9
		c-0.4,3.2-3.1,5.6-6.3,5.6c-0.2,0-0.5,0-0.7,0l-27-3c-0.2,0-0.5,0-0.7,0c-3.2,0-5.9,2.4-6.3,5.6l-12.9,115.6
		c-0.4,3.2-3.1,5.6-6.3,5.6c-0.2,0-0.5,0-0.7,0l-32.8-3.7c-3.5-0.4-6-3.5-5.6-7c0,0,0,0,0,0l12.9-115.7c0.4-3.5-2.1-6.6-5.6-7
		c0,0,0,0,0,0l-27-3c-3.5-0.4-6-3.5-5.6-7c0,0,0,0,0,0l3.3-29.9C417.7,207.3,420.4,204.9,423.7,205 M423.6,202.6L423.6,202.6
		c-4.4,0-8.1,3.3-8.6,7.7l-3.3,29.9c-0.5,4.8,2.9,9.1,7.6,9.6c0,0,0,0,0,0l27,3c2.1,0.3,3.7,2.2,3.5,4.3l-12.9,115.7
		c-0.5,4.8,2.9,9.1,7.7,9.6l32.8,3.7c0.3,0,0.6,0,1,0c4.4,0,8.1-3.3,8.6-7.7L500,262.8c0.2-2,1.9-3.5,3.9-3.5h0.4l27,3
		c0.3,0,0.7,0.1,1,0c4.4,0,8.1-3.3,8.6-7.7l3.3-29.9c0.5-4.8-2.9-9.1-7.7-9.6l-111.9-12.5c-0.3,0-0.6,0-1,0L423.6,202.6z"/>
	<path class="st0" d="M584.3,258.9c12,0,23.7,3.1,34.1,9.1c14.1,8.2,24.9,22,31.3,39.9c3.8,10.8,5.9,22.2,6.2,33.6
		c0.1,3.7,0.6,50.1-27.3,76.5c-15.9,15.1-33.8,22.7-52.1,22.7c-14.7,0-29.7-4.9-44.1-14.8c-15.6-10.6-25.5-33.3-27.2-62.2
		c-1.5-25.9,3.8-52,14-68.2c10.3-16.5,26.3-28.5,45-33.8C570.7,259.8,577.5,258.9,584.3,258.9 M579.6,389.9c2.6,0,5.1-0.7,7.3-2.1
		c7-4.4,11.8-15.2,13.5-30.5c1.5-13,2.5-43.6-19.2-46.7H581c-0.2,0-0.7-0.1-1.4-0.1c-2.8,0-5.6,0.6-8.1,1.8
		c-6.6,3.2-11.2,10.5-13.5,21.6c-3.8,18.4-0.8,31.3,2.3,38.9c4,9.7,10,14.7,14.2,16.1C576.1,389.6,577.9,389.9,579.6,389.9
		 M584.4,256.5L584.4,256.5c-7.1,0-14.1,1-20.9,3c-19.2,5.5-35.8,17.9-46.4,34.8c-10.4,16.6-15.9,43.2-14.3,69.6
		c1.8,29.7,12.1,53,28.2,64c14.7,10.1,30,15.2,45.5,15.2c19,0,37.6-8.1,53.8-23.3c28.5-26.9,28.2-73.1,28.1-78.3
		c-0.3-11.7-2.4-23.4-6.3-34.5c-6.6-18.4-17.8-32.6-32.3-41.1C609,259.7,596.8,256.4,584.4,256.5L584.4,256.5z M579.6,387.5
		c-1.5,0-3-0.3-4.4-0.8c-3.6-1.2-9.1-5.9-12.8-14.8c-3-7.3-5.9-19.8-2.2-37.5c2.2-10.4,6.2-17.1,12.2-19.9c2.2-1,4.6-1.6,7.1-1.6
		c0.4,0,0.8,0,1.2,0.1h0.2c19.6,2.8,18.5,31.8,17.2,44.1c-1.6,14.5-6,24.7-12.4,28.7C583.9,386.9,581.8,387.5,579.6,387.5
		L579.6,387.5z"/>
	<path class="st1" d="M6.3,236.2h33.5c3.5,0,6.3,2.8,6.3,6.3c0,0,0,0,0,0v64.4c0,1.8,0.8,3.6,2.2,4.8l4.2,3.7c2.6,2.3,6.6,2,8.9-0.6
		c0.3-0.4,0.6-0.8,0.9-1.3l37.5-73.8c1.1-2.1,3.3-3.5,5.6-3.5h42c3.5,0,6.3,2.8,6.3,6.3c0,1-0.3,2.1-0.7,3l-55.1,103
		c-1.4,2.6-0.8,5.8,1.4,7.7l46.5,40.6c2.6,2.3,2.9,6.3,0.6,8.9c-1.2,1.4-2.9,2.2-4.8,2.2H94.2c-1.5,0-3-0.5-4.2-1.5l-33.5-29
		c-2.6-2.3-6.6-2-8.9,0.6c-1,1.1-1.5,2.6-1.5,4.1v18.5c0,3.5-2.8,6.3-6.3,6.3H6.3c-3.5,0-6.3-2.8-6.3-6.3V242.5
		C0,239,2.8,236.2,6.3,236.2z"/>
	<path class="st1" d="M158.6,365.1l-32.2-9c-3.4-0.9-5.3-4.4-4.4-7.8c0.2-0.7,0.5-1.4,1-2l100.4-137.1c1.6-2.1,4.3-3.1,6.8-2.4
		l40,11.2c2.7,0.8,4.6,3.2,4.6,6l2.1,165.9c0,3.5-2.7,6.3-6.2,6.4c-0.6,0-1.2-0.1-1.8-0.2l-33.3-9.3c-2.6-0.7-4.5-3.1-4.6-5.9
		l-0.8-24.2c-0.1-2.7-2-5.1-4.6-5.9l-38.3-10.7c-2.5-0.7-5.2,0.2-6.8,2.3l-15.2,20.4C163.8,364.9,161.1,365.8,158.6,365.1z
		 M216,302.4l9.1,2.6c1.3,0.4,2.7-0.4,3.1-1.7c0.1-0.3,0.1-0.5,0.1-0.8l-0.5-16.1c0-1.4-1.2-2.5-2.6-2.4c-0.8,0-1.5,0.4-1.9,1
		l-9.1,12.1c-1.1,1.5-0.8,3.6,0.7,4.7C215.2,302.1,215.6,302.3,216,302.4z"/>
	<path class="st1" d="M418.2,296c0,18.9-6.2,35.6-17.1,48.8c-1.8,2.1-1.9,5.1-0.4,7.4l21.4,33c1.9,2.9,1.1,6.8-1.9,8.7
		c-0.1,0.1-0.2,0.1-0.3,0.2L389,411.6c-2.9,1.7-6.7,0.7-8.5-2.1l-21.2-33.6c-1.4-2.3-4.1-3.4-6.7-2.8c-1.6,0.4-3.3,0.7-5,1
		c-3,0.5-5.2,3.1-5.2,6.2V397c0,3.5-2.8,6.3-6.3,6.3h-33.7c-3.5,0-6.3-2.8-6.3-6.3V238c0-3.5,2.8-6.3,6.3-6.3h43.6
		c10,0,27.5,4.1,42,13C407.8,256.8,418.2,274.5,418.2,296z M366.7,292.8c-0.5-3.7-2.4-9-12.5-12.9c-1.2-0.5-2.4-0.9-3.6-1.2
		c-3.4-1-6.9,1-7.8,4.3c-0.2,0.6-0.2,1.1-0.2,1.7v33.5c0,3.5,2.8,6.3,6.2,6.3c0.9,0,1.7-0.2,2.5-0.5c3.8-1.6,7.3-4.1,10-7.3
		C367.5,309.1,367.6,299.5,366.7,292.8L366.7,292.8z"/>
	<path class="st1" d="M534.7,219.7l-3.3,29.9c-0.4,3.5-3.5,6-7,5.6c0,0,0,0,0,0l-27-3c-3.5-0.4-6.6,2.1-7,5.5c0,0,0,0,0,0.1
		l-12.8,115.7c-0.4,3.5-3.5,6-6.9,5.6c0,0,0,0-0.1,0l-32.8-3.7c-3.5-0.4-6-3.5-5.6-7c0,0,0,0,0,0L445,252.7c0.4-3.5-2.1-6.6-5.5-7
		c0,0,0,0,0,0l-27-3c-3.5-0.4-6-3.5-5.6-7c0,0,0,0,0,0l3.3-29.9c0.4-3.5,3.5-6,7-5.6c0,0,0,0,0,0l111.8,12.5c3.5,0.4,6,3.5,5.6,6.9
		C534.7,219.6,534.7,219.7,534.7,219.7z"/>
	<path class="st1" d="M611.3,263.2c14.1,8.2,24.9,22,31.3,39.9c3.8,10.8,5.9,22.2,6.2,33.6c0.1,3.7,0.6,50.1-27.3,76.5
		c-15.9,15.1-33.8,22.7-52.1,22.7c-14.7,0-29.7-4.9-44.1-14.8c-15.6-10.6-25.5-33.3-27.2-62.2c-1.5-25.9,3.8-52,14-68.2
		c10.3-16.4,26.3-28.5,45-33.8C575.9,251.6,595.2,253.8,611.3,263.2z M574,305.8h-0.2c-0.2,0-0.7-0.1-1.4-0.1
		c-2.8,0-5.6,0.6-8.1,1.8c-6.6,3.2-11.2,10.5-13.5,21.6c-3.8,18.4-0.8,31.3,2.3,38.9c4,9.7,10,14.7,14.2,16.1
		c4.1,1.6,8.8,1.1,12.5-1.2c7-4.4,11.8-15.2,13.5-30.5C594.7,339.5,595.7,308.9,574,305.8z"/>
</g>
<g>
	<path class="st2" d="M300.5,112.7c0-2.9,1.1-5.1,3.2-7.4c6.5-7.2,15-11.3,22.6-16.8c2.5-1.8,4.9-3.8,7.8-5c3.4-1.3,6-0.6,7.9,2.6
		c4.6,8,10.3,15.3,15.6,22.9c1.4,1.9,2.5,4,3.7,6c0.9,1.6,0.9,3.6-0.1,5.2c-3.6,6.4-7.4,12.7-10.7,19.2
		c-5.7,10.9-12.1,21.4-17.5,32.5c-2.5,5.1-4.7,6.4-9,5.8c-2-0.1-3.6-1.4-4.3-3.3c-2-6.1-3.9-12.2-5.9-18.3c-1.7-5.3-3.8-10.6-5.3-16
		c-1.9-7.2-4.5-14.2-6.2-21.4C301.8,116.6,300,115,300.5,112.7z M330.7,124.2c0.5,0,0.9-0.1,1.4-0.3c3.4-1.9,6.4-4.6,8.6-7.8
		c1.1-1.7,1-4-0.4-5.6c-1.4-1.9-2.9-3.8-4.4-5.5c-1.6-2-4.3-2.7-6.6-1.5c-2.8,1.2-5.2,3-7.2,5.3c-2.2,2.8-2.3,5.4-0.1,8.2
		c1.6,2.1,3.4,4,5.2,6C327.9,123.9,329.3,124.4,330.7,124.2L330.7,124.2z"/>
	<path class="st1" d="M296.5,111.7c0-2.9,1.1-5.1,3.2-7.4c6.5-7.2,15-11.3,22.6-16.8c2.5-1.8,4.9-3.8,7.8-5c3.4-1.3,6-0.6,7.9,2.6
		c4.6,8,10.3,15.3,15.6,22.9c1.4,1.9,2.5,4,3.7,6c0.9,1.6,0.9,3.6-0.1,5.2c-3.6,6.4-7.4,12.7-10.7,19.2
		c-5.7,10.9-12.1,21.4-17.5,32.5c-2.5,5.1-4.7,6.4-9,5.8c-2-0.1-3.6-1.4-4.3-3.3c-2-6.1-3.9-12.2-5.9-18.3c-1.7-5.3-3.8-10.6-5.3-16
		c-1.9-7.2-4.5-14.2-6.2-21.4C297.8,115.6,296,114,296.5,111.7z M326.7,123.2c0.5,0,0.9-0.1,1.4-0.3c3.4-1.9,6.4-4.6,8.6-7.8
		c1.1-1.7,1-4-0.4-5.6c-1.4-1.9-2.9-3.8-4.4-5.5c-1.6-2-4.3-2.7-6.6-1.5c-2.8,1.2-5.2,3-7.2,5.3c-2.2,2.8-2.3,5.4-0.1,8.2
		c1.6,2.1,3.4,4,5.2,6C323.9,122.9,325.3,123.4,326.7,123.2L326.7,123.2z"/>
</g>
<path d="M66.3-253.9L37.3-296l2.9,43.8l-36.9,2.4l-8.4-127.6l36.9-2.4l3.9,58.3l21.3-59.9l39.6-2.6l-26.2,73.2l37.5,54.2L66.3-253.9
	z"/>
<path d="M151.5-303.2l-23.7-9.2l-11.6,18.6l-35-13.6L152.1-417l51.9,20.1l-21.6,128.8l-35-13.6L151.5-303.2z M157.9-336.4l7-36.3
	l-19.4,31.4L157.9-336.4z"/>
<path d="M261.5-267.2L239-310.7l-4.1,40.8l-36.8-3.7l12.9-127.2l47.7,4.8c30.1,3.1,44.5,19.6,41.7,47.5
	c-1.9,18.4-10.6,30.7-24.8,36.2l25.1,49L261.5-267.2z M254.1-361.1l-9.9-1l-2,20.1l9.9,1c6.9,0.7,10.5-2.1,11.2-9
	C264-356.9,261.3-360.4,254.1-361.1z"/>
<path d="M379.2-377.5l-30.1-3.5l-10.7,92.1l-36.8-4.3l10.7-92.1l-30.1-3.5l4-34.9l96.9,11.2L379.2-377.5z"/>
<path d="M348.7-305.8v-21.9c0-32.3,20-53,51.5-53c31.3,0,51.3,20.7,51.3,53v21.9c0,32.3-20,53-51.3,53
	C368.5-252.8,348.7-273.5,348.7-305.8z M414.5-304.6v-22.9c0-11.8-5-18-14.3-18c-9.4,0-14.5,6.2-14.5,18v22.9
	c0,11.9,5,18.5,14.5,18.5C409.4-286.1,414.5-292.6,414.5-304.6z"/>
<g>
	<g>
		<path class="st0" d="M103.2,45c13.8-5.6,27.7-10.7,41.7-15.5c1.2,3.8,1.9,5.6,3.1,9.4c-5.9,1.9-8.8,2.9-14.7,5
			c4.2,11.8,8.4,23.6,12.7,35.3c-4.5,1.6-6.7,2.4-11.1,4.1c-4.5-11.7-9-23.4-13.4-35.1c-5.8,2.2-8.7,3.4-14.5,5.8
			C105.5,50.5,104.8,48.6,103.2,45z"/>
		<path class="st0" d="M163.3,73.4c-5-15.6-10-31.2-15-46.8c4.7-1.5,7.1-2.2,11.8-3.7c2.1,7.1,3.2,10.7,5.3,17.8
			c1.8-3.2,5.5-5.4,9.3-6.4c6.7-1.9,14.2,0.8,16.2,8.6c2.1,8.5,3.2,12.7,5.3,21.1c-4.4,1.1-6.6,1.7-10.9,2.9c-2-7.2-3-10.8-5-18
			c-1-3.6-4.5-4.5-7.3-3.7c-2.9,0.8-5.3,3.4-4.2,7c2.1,7.1,3.2,10.7,5.3,17.9C169.8,71.3,167.6,72,163.3,73.4z"/>
		<path class="st0" d="M208.1,26c8.7-1.8,18.9,1.5,20.9,12.5c0.2,1.2,0.3,2.5,0.4,3.9c-9.4,1.7-14,2.7-23.3,4.8
			c1.3,3.4,5.2,4.3,8.7,3.5c3.1-0.7,5.4-3.1,6.9-5.7c3.4,1.8,5,2.8,8.3,4.7c-1.9,4.5-6.6,8.6-13.4,10.1c-9.7,2.1-19.7-2.9-22.2-12.8
			C191.8,37.2,198.3,28.1,208.1,26z M204.6,41c5.3-1.2,8-1.8,13.3-2.9c-0.6-2.5-3.9-4.5-7.6-3.7C206.2,35.3,204.4,38.2,204.6,41z"/>
		<path class="st0" d="M252.2,5c4.9,11.2,9.7,22.4,14.2,33.7c2.1-11.9,4.4-23.7,6.9-35.5c4-0.4,6.1-0.6,10.1-0.9
			c4.5,11.2,8.8,22.4,12.9,33.7c2.5-11.9,5.2-23.9,8.1-35.7c5.1-0.2,7.7-0.3,12.9-0.4c-4.4,15.8-8.4,31.8-12,47.9
			c-6,0.3-8.9,0.4-14.9,0.9c-3.9-10.1-6-15.2-10.2-25.2c-2.4,10.6-3.6,16-5.7,26.6c-5.9,0.6-8.9,1-14.8,1.7
			c-6.4-15.2-13.1-30.2-20.2-45C244.5,6,247.1,5.7,252.2,5z"/>
		<path class="st0" d="M336.2,13.1c10,0.1,19.3,7.5,18.8,18c-0.5,10.1-9.3,17-19.1,16.9c-9.8-0.1-18.5-7.3-18.8-17.3
			C316.8,20.1,326.1,13,336.2,13.1z M335.9,38c4.4,0,7.5-3,7.6-7.3c0.1-4.2-3-7.4-7.4-7.5c-4.5,0-7.6,3.1-7.6,7.3
			C328.5,34.8,331.6,37.9,335.9,38z"/>
		<path class="st0" d="M359.7,48.1c0.6-11.2,1.2-22.3,1.8-33.5c4.5,0.2,6.7,0.4,11.2,0.7c0,1.8,0,2.8,0,4.6c1.9-3.2,5.7-4.9,9.9-4.5
			c1.4,0.1,2.9,0.5,4.4,1.1c-0.7,3.8-1,5.7-1.6,9.5c-1.4-0.6-2.9-1-4.4-1.2c-4.4-0.4-8.3,1.6-8.8,7.8c-0.5,6.4-0.7,9.7-1.2,16.1
			C366.5,48.5,364.2,48.3,359.7,48.1z"/>
		<path class="st0" d="M398.8,51.6c-4.5-0.6-6.7-0.8-11.2-1.3c1.7-16.3,3.5-32.6,5.2-48.9c4.9,0.5,7.3,0.8,12.2,1.4
			C402.9,19.1,400.9,35.4,398.8,51.6z"/>
		<path class="st0" d="M406.6,35.8c1.4-10,9.1-16.5,19.2-14.8c5.4,0.9,8.5,3.3,10.1,6.1c1.4-7.5,2.1-11.3,3.5-18.8
			c4.7,0.9,7,1.3,11.7,2.3c-3.3,16-6.7,32.1-10,48.1c-4.3-0.9-6.4-1.3-10.7-2.1c0-1,0.1-1.6,0.1-2.6c-2.4,1.6-6.3,2.2-10.5,1.5
			C410.5,53.9,405.3,45.7,406.6,35.8z M424.6,46.3c4.2,0.7,7.9-1.8,8.7-6.2c0.8-4.4-1.8-8.1-6.1-8.8c-4.5-0.8-8.3,1.6-9,6.2
			C417.5,41.9,420.3,45.5,424.6,46.3z"/>
		<path class="st0" d="M467.2,40.3c3.2-13,19.3-20.9,32.6-16.3c12.3,4.2,23.3,18.1,18.5,31.6c-4.5,12.7-20.1,18.3-32.4,15.2
			C472.7,67.4,464.2,52.6,467.2,40.3z M479.5,43.5c-2,7.3,1.8,14.3,9.6,16.6c7.4,2.2,14.7-1,17.2-8.6c2.4-7.3-1.8-14.5-9.6-16.9
			C488.9,32.3,481.5,36.1,479.5,43.5z"/>
		<path class="st0" d="M520.5,55.5c1.2-3.4,1.8-5.1,3-8.5c2.3,0.8,3.4,1.2,5.7,2.1c0.4-1.1,0.6-1.7,1-2.8c2.4-6.5,9.3-11,20.1-6.7
			c2.6,1,4.6,2.2,7.1,4.1c-1.9,3.1-2.8,4.7-4.6,7.8c-1-0.9-2.5-1.9-4.2-2.6c-2.9-1.2-6.3-1.3-7.6,2.2c-0.3,0.9-0.5,1.3-0.8,2.1
			c3.8,1.5,5.7,2.2,9.5,3.8c-1.4,3.3-2,5-3.4,8.3c-3.6-1.5-5.4-2.2-9-3.6c-3.6,9.1-5.4,13.7-8.9,22.9c-4.3-1.7-6.4-2.5-10.7-4
			c3.4-9.2,5.1-13.8,8.4-23.1C523.8,56.7,522.7,56.3,520.5,55.5z"/>
	</g>
</g>
</svg>
