<?xml version="1.0" encoding="UTF-8"?>
<svg xmlns="http://www.w3.org/2000/svg" viewBox="0 0 70.27 78.4">
  <g id="Layer_1" data-name="Layer 1"/>
  <g id="Layer_2" data-name="Layer 2">
    <g id="Layer_1-2" data-name="Layer 1">
      <g>
        <path d="M.01,58.46c0-1.99,.03-3.98-.01-5.97-.02-1,.43-1.89,.39-2.93-.11-2.7,.02-5.41,.09-8.11,.02-.71,.42-1.16,1.12-1.38,1.88-.58,3.76-1,5.76-.83,1.96,.17,3.84-.68,5.83-.54,1.79,.13,2.13,.4,2.15,2.2,.02,2.47,.53,4.92,.32,7.39-.04,.42,.29,.62,.59,.84,1.49,1.08,3.03,2.06,4.83,2.57,2.12,.6,4.26,1.02,6.46,1.17,.94,.06,1.06-.27,.96-1.09-.14-1.07-.15-2.15-.21-3.22-.04-.65,.14-1.27,.33-1.88,.11-.36,3.98-2.54,4.36-2.49,.79,.1,.88,.76,.93,1.33,.18,1.95,.36,3.9,.43,5.85,.03,.72,.16,.89,.88,.71,4.2-1.07,8.19-2.55,11.62-5.31,1.24-1,2.83-1.28,4.29-1.78,3.58-1.22,7.24-2.2,10.82-3.41,1.45-.49,2.95-.94,4.28-1.79,1.47-.94,2.84-.73,3.6,.41,.87,1.29,.51,2.87-.85,3.88-.91,.68-1.96,1.1-2.99,1.49-1.89,.72-2.9,2.14-3.63,3.88-1.25,2.98-2.3,6.03-3.32,9.1-.68,2.03-2.08,3.66-2.98,5.56-.79,1.65-1.65,3.26-2.51,4.87-1.16,2.19-2.69,3.96-5.1,4.91-2.25,.89-4.26,2.4-6.69,2.84-5.68,1.03-11.34,2.23-17.18,1.41-.97-.14-1.95,.14-2.97,0-2.11-.29-3.72-1.54-5.51-2.47-1.76-.91-3.63-1.6-5.34-2.61-3.23-1.91-6.4-3.89-9.41-6.13-.73-.54-1.15-1.2-1.14-2.11,0-2.11,0-4.23,0-6.34H.01Z" fill="#eb2629"/>
        <path d="M39.39,28.09c-.08,2.94-.55,5.71-2.19,8.3-1.37,2.17-2.86,4.21-4.68,5.96-1.52,1.46-3.53,2.11-5.63,2.32-.36,.04-.72,.05-1.08,.04-.71-.02-1.56,.4-2-.57-.44-.96-.33-1.9,.31-2.71,2.06-2.63,2.57-5.71,2.92-8.92,.23-2.1-.02-4.09-.37-6.14-.44-2.61-1.68-4.78-3.13-6.88-.57-.82-1.17-1.62-1.67-2.48-.78-1.33-.35-2.32,1.1-2.84,2.05-.74,4.29-1.11,6.2-.25,2.05,.92,4.31,1.61,5.97,3.32,2.1,2.15,3.33,4.72,3.95,7.63,.22,1.06,.31,2.13,.32,3.21Z" fill="#eb2629"/>
        <path d="M42.89,8.01c-3.59,.4-7.55,.39-11.44,1.19-.77,.16-1.05,.39-1.03,1.21,.05,1.96-.63,2.57-2.52,2.27-.85-.14-1.82,.2-2.55-.41-.92-.76,.07-1.62,0-2.46-.16-2.1-.12-4.22-.32-6.31-.12-1.24,.35-2.19,1.04-3.07,.42-.54,1.1-.52,1.63-.2,.64,.39,1.52,.43,1.85,1.33,.09,.23,.6,.33,.94,.45,4.19,1.51,8.46,2.76,12.83,3.64,.23,.05,.46,.12,.7,.16,.81,.12,1.39,.5,1.32,1.39-.08,1.01-.86,.85-1.54,.81-.2-.01-.4,0-.92,0Z" fill="#eb2629"/>
      </g>
    </g>
  </g>
</svg>