<?xml version="1.0" encoding="UTF-8"?>
<svg xmlns="http://www.w3.org/2000/svg" viewBox="0 0 26.89 22.7">
  <g id="Layer_1" data-name="Layer 1"/>
  <g id="Layer_2" data-name="Layer 2">
    <g id="Layer_1-2" data-name="Layer 1">
      <g>
        <path d="M14.93,22.65c-2.95,.2-5.59-.8-8.1-2.26-.64-.37-1.38-.59-1.91-1.15-.31-.32-.59-.15-.96-.05-2.03,.54-3.65-.51-3.75-2.44-.06-1.06-.26-2.13-.21-3.2,.08-2.08,1.68-3.16,3.7-2.68,1.77,.42,3.32,1.28,4.9,2.1,.6,.31,1.24,.8,1.25,1.63,0,.86-.63,1.26-1.3,1.53-.5,.2-.76,.48-.22,.77,2.71,1.45,5.36,3.16,8.7,1.89,1.85-.7,2.92-2.04,3.78-3.71,.91-1.75,2.85-2.14,4.2-.98,.64,.55,.71,1.12,.39,1.9-1.2,2.88-3.4,4.78-6.14,5.95-1.3,.55-2.81,.88-4.34,.7Z" fill="#eb2629"/>
        <path d="M19.21,6.22c-2.92-1.96-5.78-3.32-9.19-2.47-1.6,.4-2.75,1.54-3.54,2.98-.56,1.02-1,2.06-2.35,2.31-.86,.16-1.63-.03-2.27-.47-.64-.43-.82-1.11-.43-1.9C3.57,2.39,6.87,.17,11.79,0c3.92-.13,7.07,1.37,10.13,3.44,.43,.29,.7,.17,1.08,.03,1.83-.68,3.31,.28,3.61,2.23,.17,1.11,.32,2.2,.26,3.32-.11,2.04-1.63,3.07-3.62,2.64-1.93-.41-3.61-1.3-5.26-2.29-.62-.37-1.14-.83-.94-1.62,.19-.76,.71-1.21,1.54-1.24,.14,0,.28-.13,.63-.3Z" fill="#eb2629"/>
      </g>
    </g>
  </g>
</svg>