<?xml version="1.0" encoding="UTF-8"?>
<svg xmlns="http://www.w3.org/2000/svg" viewBox="0 0 28.36 63.71">
  <g id="Layer_1" data-name="Layer 1"/>
  <g id="Layer_2" data-name="Layer 2">
    <g id="Layer_1-2" data-name="Layer 1">
      <path d="M18.28,63.71c-4.26-.37-8.6-.3-12.94-.39-1.63-.03-2.85-1.79-2.46-3.54,.62-2.78,1.72-5.38,3.13-7.85,1.1-1.92,1.51-4.09,2.32-6.12,.5-1.28-.44-2.84-.89-4.24-1.4-4.35-3.27-8.52-4.61-12.91-.99-3.25-1.55-6.58-2.48-9.84-.69-2.43-.45-4.66,1.45-6.76,2.81-3.1,5.72-6.11,8.34-9.38,.64-.8,1.45-1.48,2.23-2.16,.81-.7,2.2-.75,2.96,.09,1.44,1.58,3.41,2.74,4.35,4.7,1.11,2.33,3.28,3.65,4.82,5.55,1.35,1.66,2.75,3.29,3.56,5.34,.38,.96,.42,1.87,0,2.78-1.63,3.59-2.57,7.47-4.57,10.9-1.08,1.85-2.25,3.65-3.15,5.61-.45,.98-.83,1.99-1.2,2.99-.85,2.24-2.22,4.21-3.19,6.4-.23,.51-.23,.89,.03,1.32,2.09,3.39,4,6.89,6.54,9.99,.7,.86,1.32,1.79,1.97,2.69,1.11,1.53,.3,3.56-1.54,4.08-.84,.24-1.7,.42-2.57,.56-.67,.11-1.35,.11-2.11,.17ZM7.87,12.03c-1.27,0-2.23,.96-2.25,2.26-.02,1.1,.76,1.94,1.8,1.94,1.1,0,2.47-1.3,2.48-2.34,0-1.06-.85-1.85-2.03-1.86Z" fill="#eb2629"/>
    </g>
  </g>
</svg>